<?xml version="1.0" encoding="UTF-8"?><svg id="Layer_1" xmlns="http://www.w3.org/2000/svg" viewBox="0 0 409.83 107.59"><defs><style>.cls-1{fill:#263b97;}</style></defs><path class="cls-1" d="M61.17,66.33c0,12.79-10.49,22.26-30.25,22.26H.79v-.71c7.59,0,8.04-5.33,8.04-14.09V17.19c0-8.76-.45-14.09-8.04-14.09v-.71H29.37c18.53,0,27.57,8.05,27.57,20.25,0,12.91-9.82,18.71-18.53,20.48v.24c11.72,1.42,22.77,9.35,22.77,22.97ZM18.65,8.55V42.76h8.93c13.39,0,18.97-7.58,18.97-18.35,0-12.43-6.59-20.13-19.09-20.13h-4.57c-2.68,0-4.24,1.42-4.24,4.26Zm31.7,57.42c0-13.26-8.26-21.31-22.32-21.31h-9.38v34.46c0,3.2,0,7.58,9.93,7.58,13.73,0,21.76-7.58,21.76-20.72Z"/><path class="cls-1" d="M246.36,97.23c-7.03,6.16-13.17,9.12-22.43,9.12-10.49,0-22.1-3.55-33.37-16.46-.67,.12-1.45,.12-2.12,.12-21.87,0-36.05-17.29-36.05-44.28S167,.97,188.66,.97s36.16,17.29,36.16,44.28c0,20.48-9.6,35.99-23.33,42.03,8.37,10.66,18.53,14.68,27.79,14.68,6.03,0,11.61-1.78,16.85-5.33l.23,.59Zm-57.7-8.88c16.29,0,25.11-18.23,25.11-42.86S204.73,2.63,188.43,2.63s-25.11,18.23-25.11,42.86,9.15,42.86,25.33,42.86Z"/><path class="cls-1" d="M231.61,60.41V17.19c0-8.76-.45-14.09-8.03-14.09v-.71h26.01v.71c-7.59,0-8.04,5.33-8.04,14.09V59.58c0,19.18,5.69,27.59,19.42,27.59s21.65-8.41,21.65-27V23.82c0-11.6-1.79-20.72-9.37-20.72v-.71h20.09v.71c-7.59,0-8.71,9.12-8.71,20.72V60.17c0,20.01-8.71,29.84-25.56,29.84-17.86,0-27.46-9.35-27.46-29.6Z"/><path class="cls-1" d="M351.44,68.69l-2.57,19.89h-56.25v-.71c7.59,0,8.04-5.33,8.04-14.09V17.19c0-8.76-.45-14.09-8.04-14.09v-.71h54.58l1.45,17.76h-.67c-5.69-13.5-9.37-15.87-21.54-15.87h-15.96V42.76h12.5c10.05,0,12.28-2.84,14.17-11.6h.67v25.93h-.67c-1.9-8.41-4.13-12.43-14.17-12.43h-12.5v36.47c0,3.55,1.01,5.57,4.47,5.57h13.17c11.83,0,16.07-2.13,22.66-18h.67Z"/><path class="cls-1" d="M408.36,20.15h-.67c-5.69-13.5-9.26-15.87-20.53-15.87h-3.91V73.79c0,8.76,.45,14.09,8.03,14.09v.71h-25.89v-.71c7.59,0,8.03-5.33,8.03-14.09V4.28h-4.02c-11.27,0-14.73,2.37-20.54,15.87h-.67l1.56-17.76h57.14l1.45,17.76Z"/><path class="cls-1" d="M141.1,18.87C128.18,1.5,104.83,.66,83.56,16.49c-21.65,16.11-27.06,37.8-14,55.35,12.92,17.37,36.34,18.3,57.62,2.47,21.65-16.11,26.99-37.89,13.93-55.44Zm-67.06,52.88c-11.52-82.9,63.54-51.57,63.54-51.57,14.1,78.48-63.54,51.57-63.54,51.57Z"/></svg>